{
    "asset" : {
        "generator" : "Khronos glTF Blender I/O v3.2.40",
        "version" : "2.0"
    },
    "scene" : 0,
    "scenes" : [
        {
            "name" : "Scene",
            "nodes" : [
                0
            ]
        }
    ],
    "nodes" : [
        {
            "mesh" : 0,
            "name" : "catan_main_number-tokens.016"
        }
    ],
    "meshes" : [
        {
            "name" : "catan_main_number-tokens.016",
            "primitives" : [
                {
                    "attributes" : {
                        "POSITION" : 0,
                        "NORMAL" : 1
                    },
                    "indices" : 2
                }
            ]
        }
    ],
    "accessors" : [
        {
            "bufferView" : 0,
            "componentType" : 5126,
            "count" : 1168,
            "max" : [
                -1.9989999532699585,
                1.1009999513626099,
                69.5
            ],
            "min" : [
                -27.000999450683594,
                0,
                44.5
            ],
            "type" : "VEC3"
        },
        {
            "bufferView" : 1,
            "componentType" : 5126,
            "count" : 1168,
            "type" : "VEC3"
        },
        {
            "bufferView" : 2,
            "componentType" : 5123,
            "count" : 1428,
            "type" : "SCALAR"
        }
    ],
    "bufferViews" : [
        {
            "buffer" : 0,
            "byteLength" : 14016,
            "byteOffset" : 0
        },
        {
            "buffer" : 0,
            "byteLength" : 14016,
            "byteOffset" : 14016
        },
        {
            "buffer" : 0,
            "byteLength" : 2856,
            "byteOffset" : 28032
        }
    ],
    "buffers" : [
        {
            "byteLength" : 30888,
            "uri" : "data:application/octet-stream;base64,"
        }
    ]
}
