{
    "asset" : {
        "generator" : "Khronos glTF Blender I/O v3.2.40",
        "version" : "2.0"
    },
    "scene" : 0,
    "scenes" : [
        {
            "name" : "Scene",
            "nodes" : [
                0
            ]
        }
    ],
    "nodes" : [
        {
            "mesh" : 0,
            "name" : "catan_main_number-tokens.008"
        }
    ],
    "meshes" : [
        {
            "name" : "catan_main_number-tokens.008",
            "primitives" : [
                {
                    "attributes" : {
                        "POSITION" : 0,
                        "NORMAL" : 1
                    },
                    "indices" : 2
                }
            ]
        }
    ],
    "accessors" : [
        {
            "bufferView" : 0,
            "componentType" : 5126,
            "count" : 1028,
            "max" : [
                28.000999450683594,
                1.1009999513626099,
                70
            ],
            "min" : [
                2.999000072479248,
                0,
                45
            ],
            "type" : "VEC3"
        },
        {
            "bufferView" : 1,
            "componentType" : 5126,
            "count" : 1028,
            "type" : "VEC3"
        },
        {
            "bufferView" : 2,
            "componentType" : 5123,
            "count" : 1356,
            "type" : "SCALAR"
        }
    ],
    "bufferViews" : [
        {
            "buffer" : 0,
            "byteLength" : 12336,
            "byteOffset" : 0
        },
        {
            "buffer" : 0,
            "byteLength" : 12336,
            "byteOffset" : 12336
        },
        {
            "buffer" : 0,
            "byteLength" : 2712,
            "byteOffset" : 24672
        }
    ],
    "buffers" : [
        {
            "byteLength" : 27384,
            "uri" : "data:application/octet-stream;base64,"
        }
    ]
}
