{
    "asset" : {
        "generator" : "Khronos glTF Blender I/O v3.2.40",
        "version" : "2.0"
    },
    "scene" : 0,
    "scenes" : [
        {
            "name" : "Scene",
            "nodes" : [
                0
            ]
        }
    ],
    "nodes" : [
        {
            "mesh" : 0,
            "name" : "catan_main_number-tokens.012"
        }
    ],
    "meshes" : [
        {
            "name" : "catan_main_number-tokens.012",
            "primitives" : [
                {
                    "attributes" : {
                        "POSITION" : 0,
                        "NORMAL" : 1
                    },
                    "indices" : 2
                }
            ]
        }
    ],
    "accessors" : [
        {
            "bufferView" : 0,
            "componentType" : 5126,
            "count" : 932,
            "max" : [
                28.000999450683594,
                1.1009999513626099,
                -13.49899959564209
            ],
            "min" : [
                2.999000072479248,
                0,
                -38.5
            ],
            "type" : "VEC3"
        },
        {
            "bufferView" : 1,
            "componentType" : 5126,
            "count" : 932,
            "type" : "VEC3"
        },
        {
            "bufferView" : 2,
            "componentType" : 5123,
            "count" : 1236,
            "type" : "SCALAR"
        }
    ],
    "bufferViews" : [
        {
            "buffer" : 0,
            "byteLength" : 11184,
            "byteOffset" : 0
        },
        {
            "buffer" : 0,
            "byteLength" : 11184,
            "byteOffset" : 11184
        },
        {
            "buffer" : 0,
            "byteLength" : 2472,
            "byteOffset" : 22368
        }
    ],
    "buffers" : [
        {
            "byteLength" : 24840,
            "uri" : "data:application/octet-stream;base64,"
        }
    ]
}
